<?xml version="1.0" encoding="UTF-8" standalone="no"?>
<!-- Created with Inkscape (http://www.inkscape.org/) -->

<svg
   xmlns:dc="http://purl.org/dc/elements/1.1/"
   xmlns:cc="http://creativecommons.org/ns#"
   xmlns:rdf="http://www.w3.org/1999/02/22-rdf-syntax-ns#"
   xmlns:svg="http://www.w3.org/2000/svg"
   xmlns="http://www.w3.org/2000/svg"
   xmlns:sodipodi="http://sodipodi.sourceforge.net/DTD/sodipodi-0.dtd"
   xmlns:inkscape="http://www.inkscape.org/namespaces/inkscape"
   width="128"
   height="128"
   viewBox="0 0 33.866666 33.866668"
   version="1.1"
   id="svg8"
   inkscape:version="0.92.4 (5da689c313, 2019-01-14)"
   sodipodi:docname="SNMPv3.svg">
  <title
     id="title3827">SNMPv3</title>
  <defs
     id="defs2" />
  <sodipodi:namedview
     id="base"
     pagecolor="#ffffff"
     bordercolor="#666666"
     borderopacity="1.0"
     inkscape:pageopacity="0.0"
     inkscape:pageshadow="2"
     inkscape:zoom="6.625"
     inkscape:cx="21.587453"
     inkscape:cy="65.931219"
     inkscape:document-units="px"
     inkscape:current-layer="layer1"
     showgrid="false"
     units="px"
     inkscape:window-width="1920"
     inkscape:window-height="1017"
     inkscape:window-x="-8"
     inkscape:window-y="-8"
     inkscape:window-maximized="1" />
  <metadata
     id="metadata5">
    <rdf:RDF>
      <cc:Work
         rdf:about="">
        <dc:format>image/svg+xml</dc:format>
        <dc:type
           rdf:resource="http://purl.org/dc/dcmitype/StillImage" />
        <dc:title>SNMPv3</dc:title>
      </cc:Work>
    </rdf:RDF>
  </metadata>
  <g
     inkscape:label="Layer 1"
     inkscape:groupmode="layer"
     id="layer1"
     transform="translate(0,-263.13332)">
    <path
       style="fill:#b3b3b3;stroke-width:0.26458335"
       d="M 1.3229166,263.13333 H 32.543752 c 0.732896,0 1.322917,0.59002 1.322917,1.32292 v 31.22083 c 0,0.7329 -0.590021,1.32292 -1.322917,1.32292 H 1.3229166 C 0.59002082,297 0,296.40998 0,295.67708 v -31.22083 c 0,-0.7329 0.59002082,-1.32292 1.3229166,-1.32292 z"
       id="rect3724" />
    <path
       style="fill:#666666;stroke-width:0.88191718"
       d="M 13.375 19 C 10.95125 19 9 20.95125 9 23.375 L 9 84.625 C 9 87.04875 10.95125 89 13.375 89 L 34 89 L 34 95.666016 C 34 97.512682 35.487318 99 37.333984 99 L 44 99 L 44 105.66602 C 44 107.51268 45.487318 109 47.333984 109 L 80.666016 109 C 82.512682 109 84 107.51268 84 105.66602 L 84 99 L 90.666016 99 C 92.512682 99 94 97.512682 94 95.666016 L 94 89 L 114.625 89 C 117.04875 89 119 87.04875 119 84.625 L 119 23.375 C 119 20.95125 117.04875 19 114.625 19 L 13.375 19 z "
       transform="matrix(0.26458334,0,0,0.26458334,0,263.13332)"
       id="rect3726" />
    <g
       id="g3799"
       transform="translate(2.6158795,-2.2988615)">
      <path
         style="fill:#808000;stroke-width:0.30551454"
         d="m 6.9091201,271.51761 c 0.2931583,0 0.5291667,0.23601 0.5291667,0.52917 v 1.5875 c 0,0.29315 -0.2360084,0.52916 -0.5291667,0.52916 -0.2931584,0 -0.5291667,-0.23601 -0.5291667,-0.52916 v -1.5875 c 0,-0.29316 0.2360083,-0.52917 0.5291667,-0.52917 z"
         id="rect3732" />
      <path
         style="fill:#808000;stroke-width:0.30551454"
         d="m 9.0257878,271.51761 c 0.2931584,0 0.5291667,0.23601 0.5291667,0.52917 v 1.5875 c 0,0.29315 -0.2360083,0.52916 -0.5291667,0.52916 -0.2931583,0 -0.5291667,-0.23601 -0.5291667,-0.52916 v -1.5875 c 0,-0.29316 0.2360084,-0.52917 0.5291667,-0.52917 z"
         id="rect3732-3" />
      <path
         style="fill:#808000;stroke-width:0.30551454"
         d="m 11.142455,271.51761 c 0.293158,0 0.529166,0.23601 0.529166,0.52917 v 1.5875 c 0,0.29315 -0.236008,0.52916 -0.529166,0.52916 -0.293159,0 -0.529167,-0.23601 -0.529167,-0.52916 v -1.5875 c 0,-0.29316 0.236008,-0.52917 0.529167,-0.52917 z"
         id="rect3732-2" />
      <path
         style="fill:#808000;stroke-width:0.30551454"
         d="m 19.609123,271.51761 c 0.293158,0 0.529166,0.23601 0.529166,0.52917 v 1.5875 c 0,0.29315 -0.236008,0.52916 -0.529166,0.52916 -0.293159,0 -0.529167,-0.23601 -0.529167,-0.52916 v -1.5875 c 0,-0.29316 0.236008,-0.52917 0.529167,-0.52917 z"
         id="rect3732-5" />
      <path
         style="fill:#808000;stroke-width:0.30551454"
         d="m 17.492456,271.51761 c 0.293158,0 0.529167,0.23601 0.529167,0.52917 v 1.5875 c 0,0.29315 -0.236009,0.52916 -0.529167,0.52916 -0.293158,0 -0.529167,-0.23601 -0.529167,-0.52916 v -1.5875 c 0,-0.29316 0.236009,-0.52917 0.529167,-0.52917 z"
         id="rect3732-1" />
      <path
         style="fill:#808000;stroke-width:0.30551454"
         d="m 21.72579,271.51761 c 0.293158,0 0.529166,0.23601 0.529166,0.52917 v 1.5875 c 0,0.29315 -0.236008,0.52916 -0.529166,0.52916 -0.293159,0 -0.529167,-0.23601 -0.529167,-0.52916 v -1.5875 c 0,-0.29316 0.236008,-0.52917 0.529167,-0.52917 z"
         id="rect3732-13" />
      <path
         style="fill:#808000;stroke-width:0.30551454"
         d="m 13.25912,271.51761 c 0.293159,0 0.529167,0.23601 0.529167,0.52917 v 1.5875 c 0,0.29315 -0.236008,0.52916 -0.529167,0.52916 -0.293158,0 -0.529166,-0.23601 -0.529166,-0.52916 v -1.5875 c 0,-0.29316 0.236008,-0.52917 0.529166,-0.52917 z"
         id="rect3732-6" />
      <path
         style="fill:#808000;stroke-width:0.30551454"
         d="m 15.375789,271.51761 c 0.293159,0 0.529167,0.23601 0.529167,0.52917 v 1.5875 c 0,0.29315 -0.236008,0.52916 -0.529167,0.52916 -0.293158,0 -0.529167,-0.23601 -0.529167,-0.52916 v -1.5875 c 0,-0.29316 0.236009,-0.52917 0.529167,-0.52917 z"
         id="rect3732-9" />
    </g>
    <g
       aria-label="SNMP"
       style="font-style:normal;font-variant:normal;font-weight:normal;font-stretch:normal;font-size:10.58333397px;line-height:1.25;font-family:'Arial Rounded MT Bold';-inkscape-font-specification:'Arial Rounded MT Bold, ';letter-spacing:0px;word-spacing:0px;fill:#333333;fill-opacity:1;stroke:none;stroke-width:0.26458335"
       id="text3831">
      <path
         d="m 9.7585772,278.93657 q 0,0.54984 -0.2852539,0.98806 -0.2811198,0.43821 -0.8268229,0.68626 -0.5457032,0.24805 -1.293978,0.24805 -0.8971029,0 -1.4800131,-0.339 -0.4134115,-0.24391 -0.6738607,-0.64906 -0.2563151,-0.40927 -0.2563151,-0.79375 0,-0.22324 0.1529622,-0.38033 0.1570964,-0.16123 0.396875,-0.16123 0.1943034,0 0.3265951,0.12402 0.1364258,0.12402 0.2315104,0.36793 0.1157553,0.28939 0.2480469,0.4837 0.1364258,0.1943 0.3803386,0.32246 0.2439128,0.12402 0.6407878,0.12402 0.5457032,0 0.8847006,-0.25218 0.3431315,-0.25632 0.3431315,-0.63665 0,-0.30179 -0.1860352,-0.48783 -0.181901,-0.19017 -0.4754232,-0.28939 -0.289388,-0.0992 -0.7772136,-0.21084 -0.6531901,-0.15296 -1.0955404,-0.35553 -0.4382162,-0.20671 -0.6986654,-0.55811 -0.2563151,-0.35553 -0.2563151,-0.88056 0,-0.50023 0.2728516,-0.88884 0.2728515,-0.3886 0.7896159,-0.59531 0.5167644,-0.21084 1.2154298,-0.21084 0.5581055,0 0.9632487,0.14056 0.4092774,0.13643 0.6779948,0.36794 0.2687175,0.22737 0.392741,0.47955 0.1240234,0.25218 0.1240234,0.49196 0,0.21911 -0.1570964,0.39688 -0.1529622,0.17363 -0.3844726,0.17363 -0.2108399,0 -0.322461,-0.10335 -0.107487,-0.10749 -0.2356445,-0.34727 -0.1653646,-0.34313 -0.3968751,-0.5333 -0.2315104,-0.1943 -0.7441406,-0.1943 -0.4754232,0 -0.7689454,0.21084 -0.289388,0.2067 -0.289388,0.50023 0,0.1819 0.099219,0.31419 0.099219,0.13229 0.2728516,0.22737 0.1736328,0.0951 0.3513998,0.14883 0.1777669,0.0537 0.5870443,0.1571 0.5126302,0.11989 0.9260417,0.26458 0.4175456,0.1447 0.7069336,0.3514 0.2935222,0.20671 0.4547527,0.52503 0.1653645,0.3142 0.1653645,0.77308 z"
         style="font-style:normal;font-variant:normal;font-weight:normal;font-stretch:normal;font-size:8.46666718px;font-family:'Arial Rounded MT Bold';-inkscape-font-specification:'Arial Rounded MT Bold, ';fill:#333333;stroke-width:0.26458335"
         id="path836" />
      <path
         d="m 12.408545,275.32749 2.360579,3.57188 v -3.60495 q 0,-0.3514 0.148828,-0.52503 0.152963,-0.17777 0.409278,-0.17777 0.264583,0 0.417545,0.17777 0.152963,0.17363 0.152963,0.52503 v 4.76663 q 0,0.79789 -0.661459,0.79789 -0.165364,0 -0.297656,-0.0496 -0.132292,-0.0455 -0.248047,-0.14883 -0.115755,-0.10335 -0.214974,-0.23978 -0.09922,-0.14056 -0.198437,-0.28525 l -2.302702,-3.53054 v 3.55121 q 0,0.34726 -0.161231,0.52503 -0.16123,0.17777 -0.413411,0.17777 -0.26045,0 -0.417546,-0.17777 -0.157096,-0.1819 -0.157096,-0.52503 v -4.67569 q 0,-0.29765 0.06615,-0.46715 0.07855,-0.18604 0.260449,-0.30179 0.181901,-0.11989 0.392741,-0.11989 0.165364,0 0.28112,0.0537 0.119889,0.0538 0.206705,0.1447 0.09095,0.091 0.181901,0.23564 0.09509,0.1447 0.194304,0.30179 z"
         style="font-style:normal;font-variant:normal;font-weight:normal;font-stretch:normal;font-size:8.46666718px;font-family:'Arial Rounded MT Bold';-inkscape-font-specification:'Arial Rounded MT Bold, ';fill:#333333;stroke-width:0.26458335"
         id="path838" />
      <path
         d="m 19.287712,279.84195 -0.971517,-3.86127 v 4.18373 q 0,0.34726 -0.157096,0.52089 -0.152962,0.17364 -0.409278,0.17364 -0.248047,0 -0.405143,-0.1695 -0.157096,-0.17363 -0.157096,-0.52503 v -4.79558 q 0,-0.39687 0.206706,-0.5333 0.206705,-0.14056 0.558105,-0.14056 h 0.380339 q 0.343131,0 0.496093,0.062 0.157097,0.062 0.231511,0.22325 0.07441,0.16123 0.169498,0.52503 l 0.880567,3.31969 0.880566,-3.31969 q 0.09508,-0.3638 0.169499,-0.52503 0.07441,-0.16123 0.227376,-0.22325 0.157097,-0.062 0.500228,-0.062 h 0.380339 q 0.3514,0 0.558105,0.14056 0.206706,0.13643 0.206706,0.5333 v 4.79558 q 0,0.34726 -0.157096,0.52089 -0.152962,0.17364 -0.413412,0.17364 -0.243912,0 -0.401009,-0.17364 -0.157096,-0.17363 -0.157096,-0.52089 v -4.18373 l -0.971517,3.86127 q -0.09509,0.3762 -0.157097,0.55397 -0.05788,0.17363 -0.219108,0.31832 -0.16123,0.1447 -0.446484,0.1447 -0.214974,0 -0.363802,-0.0951 -0.148828,-0.0909 -0.231511,-0.23564 -0.08268,-0.1447 -0.132291,-0.31833 -0.04548,-0.17777 -0.09509,-0.36793 z"
         style="font-style:normal;font-variant:normal;font-weight:normal;font-stretch:normal;font-size:8.46666718px;font-family:'Arial Rounded MT Bold';-inkscape-font-specification:'Arial Rounded MT Bold, ';fill:#333333;stroke-width:0.26458335"
         id="path840" />
      <path
         d="m 26.654704,278.39501 h -1.124479 v 1.71565 q 0,0.36794 -0.173633,0.55811 -0.173633,0.19017 -0.438216,0.19017 -0.276986,0 -0.446484,-0.18604 -0.169499,-0.19017 -0.169499,-0.55397 v -4.67155 q 0,-0.40514 0.186035,-0.57877 0.186035,-0.17364 0.591178,-0.17364 h 1.575098 q 0.698666,0 1.07487,0.10749 0.37207,0.10335 0.640788,0.34313 0.272851,0.23978 0.413411,0.58705 0.14056,0.34726 0.14056,0.78134 0,0.92604 -0.570508,1.4056 -0.570507,0.47543 -1.699121,0.47543 z m -0.297656,-2.77813 h -0.826823 v 1.85208 h 0.826823 q 0.434082,0 0.72347,-0.0909 0.293522,-0.091 0.446484,-0.29765 0.152963,-0.20671 0.152963,-0.54157 0,-0.40101 -0.235645,-0.65319 -0.264583,-0.26872 -1.087272,-0.26872 z"
         style="font-style:normal;font-variant:normal;font-weight:normal;font-stretch:normal;font-size:8.46666718px;font-family:'Arial Rounded MT Bold';-inkscape-font-specification:'Arial Rounded MT Bold, ';fill:#333333;stroke-width:0.26458335"
         id="path842" />
    </g>
    <g
       aria-label="v3"
       style="font-style:normal;font-variant:normal;font-weight:normal;font-stretch:normal;font-size:7.05555582px;line-height:1.25;font-family:'Arial Rounded MT Bold';-inkscape-font-specification:'Arial Rounded MT Bold, ';letter-spacing:0px;word-spacing:0px;fill:#252938;fill-opacity:1;stroke:none;stroke-width:0.26458335"
       id="text3835">
      <path
         d="m 14.137639,284.42257 0.761366,2.13596 0.819932,-2.22898 q 0.09646,-0.26872 0.189481,-0.37896 0.09302,-0.11369 0.282498,-0.11369 0.179145,0 0.303168,0.12058 0.127468,0.12058 0.127468,0.27905 0,0.062 -0.02412,0.1447 -0.02067,0.0827 -0.05168,0.15502 -0.02756,0.0724 -0.06546,0.16537 l -0.902615,2.23931 q -0.0379,0.0965 -0.09991,0.2446 -0.05857,0.14814 -0.134359,0.25494 -0.07235,0.10335 -0.18259,0.16192 -0.106798,0.0586 -0.261827,0.0586 -0.199816,0 -0.320394,-0.0896 -0.117133,-0.093 -0.1757,-0.19981 -0.05512,-0.11024 -0.18948,-0.43064 l -0.895725,-2.21519 q -0.03101,-0.0827 -0.06546,-0.16537 -0.03101,-0.0827 -0.05512,-0.16881 -0.02067,-0.0861 -0.02067,-0.14814 0,-0.0965 0.05857,-0.18948 0.05857,-0.0965 0.161919,-0.15503 0.103353,-0.062 0.223931,-0.062 0.234267,0 0.320394,0.13436 0.08957,0.13436 0.196371,0.45131 z"
         style="font-style:normal;font-variant:normal;font-weight:normal;font-stretch:normal;font-size:7.05555582px;font-family:'Arial Rounded MT Bold';-inkscape-font-specification:'Arial Rounded MT Bold, ';fill:#252938;fill-opacity:1;stroke-width:0.26458335"
         id="path831" />
      <path
         d="m 18.750621,284.52592 q 0.316949,0 0.544326,-0.18604 0.230821,-0.18603 0.230821,-0.53399 0,-0.26527 -0.18259,-0.45475 -0.18259,-0.19292 -0.492649,-0.19292 -0.210151,0 -0.347954,0.0586 -0.134359,0.0586 -0.213596,0.15503 -0.07924,0.0965 -0.151585,0.24805 -0.0689,0.15158 -0.127468,0.28594 -0.03445,0.0724 -0.124024,0.11369 -0.08957,0.0413 -0.206705,0.0413 -0.137804,0 -0.254937,-0.11024 -0.113688,-0.11369 -0.113688,-0.29972 0,-0.17915 0.106797,-0.37552 0.110244,-0.19982 0.316949,-0.37896 0.210151,-0.17915 0.52021,-0.28594 0.310058,-0.11025 0.692464,-0.11025 0.334174,0 0.609782,0.093 0.275607,0.0896 0.478868,0.26183 0.203261,0.17225 0.306614,0.39963 0.103353,0.22738 0.103353,0.4892 0,0.34451 -0.151585,0.59256 -0.148139,0.2446 -0.427192,0.47887 0.268718,0.14469 0.451308,0.33073 0.186035,0.18603 0.279053,0.41341 0.09302,0.22393 0.09302,0.48576 0,0.3135 -0.127468,0.60633 -0.124024,0.29284 -0.368625,0.52366 -0.244602,0.22737 -0.582222,0.35829 -0.334174,0.12747 -0.740695,0.12747 -0.413412,0 -0.740696,-0.14814 -0.327284,-0.14814 -0.54088,-0.36863 -0.210151,-0.22393 -0.320394,-0.46164 -0.106798,-0.23771 -0.106798,-0.39274 0,-0.19982 0.127469,-0.3204 0.130914,-0.12402 0.323839,-0.12402 0.09646,0 0.186035,0.0586 0.08957,0.0551 0.117133,0.13436 0.179145,0.47886 0.382406,0.71313 0.206706,0.23082 0.578776,0.23082 0.213596,0 0.409966,-0.10335 0.199816,-0.1068 0.327284,-0.3135 0.130914,-0.20671 0.130914,-0.47887 0,-0.40308 -0.220486,-0.63045 -0.220486,-0.23083 -0.613227,-0.23083 -0.0689,0 -0.213596,0.0138 -0.144694,0.0138 -0.186035,0.0138 -0.18948,0 -0.292833,-0.093 -0.103353,-0.0965 -0.103353,-0.26528 0,-0.16536 0.124023,-0.26527 0.124024,-0.10335 0.368626,-0.10335 z"
         style="font-style:normal;font-variant:normal;font-weight:normal;font-stretch:normal;font-size:7.05555582px;font-family:'Arial Rounded MT Bold';-inkscape-font-specification:'Arial Rounded MT Bold, ';fill:#252938;fill-opacity:1;stroke-width:0.26458335"
         id="path833" />
    </g>
  </g>
</svg>
